<svg xmlns="http://www.w3.org/2000/svg" xmlns:xlink="http://www.w3.org/1999/xlink" width="35" height="35" viewBox="0 0 35 35">
  <defs>
    <clipPath id="clip-path">
      <rect id="Rectángulo_1" data-name="Rectángulo 1" width="35" height="35" transform="translate(177 254)" fill="#fff"/>
    </clipPath>
  </defs>
  <g id="delivery_icon" transform="translate(-177 -254)" clip-path="url(#clip-path)">
    <g id="delivery-truck" transform="translate(177 254)">
      <g id="Grupo_2" data-name="Grupo 2">
        <g id="Grupo_1" data-name="Grupo 1">
          <path id="Trazado_1" data-name="Trazado 1" d="M28.335,12.888h-2.2L26.8,5.265c0-.014,0-.027,0-.041s0,0,0,0h0a.513.513,0,0,0-.309-.47l0,0-.035-.013-.013,0-.03-.008-.021,0-.027,0-.025,0H15.792a.513.513,0,0,0,0,1.025h9.934L24.7,17.448v0l-.257,2.956H6.632l.3-3.076h3.392a.513.513,0,1,0,0-1.025H7.029l.629-6.494h5.4a.513.513,0,0,0,0-1.025h-5.3l.3-3.053h5.687a.513.513,0,0,0,0-1.025H7.588a.513.513,0,0,0-.5.4v.005c0,.013,0,.026-.006.039s0,.008,0,.012v0l-.35,3.615H.513a.513.513,0,1,0,0,1.025H6.628L6,16.305H4.17a.513.513,0,1,0,0,1.025H5.9l-.343,3.536v0l-.53,5.467v0c0,.007,0,.014,0,.021s0,.019,0,.028h0c0,.013,0,.026,0,.039s0,.008,0,.013,0,.026.006.039,0,.008,0,.011,0,.019.007.029,0,.014.005.02l0,.006a.513.513,0,0,0,.122.2l0,0,.017.016a.509.509,0,0,0,.119.081l.027.013.009,0,.039.014h0l.046.012h.006l.045.007h0l.05,0H7.821a3.9,3.9,0,0,0,7.738,0h8.224a3.9,3.9,0,0,0,7.738,0H33.8l.051,0h.009l.04-.006.017,0,.03-.008.02-.007.025-.009.021-.009.022-.011.02-.011.021-.013.019-.013.02-.015.017-.013.02-.019.014-.013.021-.023.011-.012.021-.029.007-.01c.008-.013.016-.025.023-.039v0c.008-.014.015-.029.021-.044l0-.013c0-.011.008-.021.012-.032s0-.014.006-.022,0-.017.007-.026,0-.016,0-.024,0-.014,0-.021c.022-.174.423-3.4.6-5.478v-.006c.052-.6.085-1.106.085-1.416A6.673,6.673,0,0,0,28.335,12.888Zm-2.293,1.026h2.1l-.268,3.076h-2.1ZM11.69,29.267a2.878,2.878,0,1,1,2.878-2.878A2.882,2.882,0,0,1,11.69,29.267Zm15.961,0a2.878,2.878,0,1,1,2.878-2.878A2.881,2.881,0,0,1,27.651,29.267Zm5.7-3.391H31.52a3.9,3.9,0,0,0-7.738,0H15.559a3.9,3.9,0,0,0-7.738,0H6.1l.431-4.444H24.918l.051,0h.009l.04-.006.017,0,.03-.008.02-.007.026-.009.021-.01.022-.011.021-.012.021-.013.019-.013.02-.015.017-.015.019-.017.015-.015.018-.02.013-.016.016-.022.012-.017.014-.024.01-.018.012-.025.009-.02c0-.008.006-.016.009-.025l.007-.022.006-.024c0-.008,0-.016.006-.024s0-.016,0-.024,0-.017,0-.025v0l.257-2.95h2.65a3.672,3.672,0,0,1,3.029,1.676,4.207,4.207,0,0,0,2.484,1.7C33.7,22.965,33.458,24.989,33.35,25.876Zm.586-5.516a3.355,3.355,0,0,1-1.8-1.343,4.815,4.815,0,0,0-3.239-2l.265-3.045a5.648,5.648,0,0,1,4.811,5.578C33.975,19.745,33.96,20.024,33.936,20.36Z"/>
        </g>
      </g>
      <g id="Grupo_4" data-name="Grupo 4">
        <g id="Grupo_3" data-name="Grupo 3">
          <path id="Trazado_2" data-name="Trazado 2" d="M11.69,24.509a1.88,1.88,0,1,0,1.88,1.88A1.882,1.882,0,0,0,11.69,24.509Zm0,2.734a.854.854,0,1,1,.854-.854A.855.855,0,0,1,11.69,27.243Z"/>
        </g>
      </g>
      <g id="Grupo_6" data-name="Grupo 6">
        <g id="Grupo_5" data-name="Grupo 5">
          <path id="Trazado_3" data-name="Trazado 3" d="M27.651,24.509a1.88,1.88,0,1,0,1.88,1.88A1.882,1.882,0,0,0,27.651,24.509Zm0,2.734a.854.854,0,1,1,.854-.854A.855.855,0,0,1,27.651,27.243Z"/>
        </g>
      </g>
      <g id="Grupo_8" data-name="Grupo 8">
        <g id="Grupo_7" data-name="Grupo 7">
          <path id="Trazado_4" data-name="Trazado 4" d="M4.854,12.888H2.347a.513.513,0,1,0,0,1.025H4.854a.513.513,0,1,0,0-1.025Z"/>
        </g>
      </g>
    </g>
  </g>
</svg>
