<svg xmlns="http://www.w3.org/2000/svg" xmlns:xlink="http://www.w3.org/1999/xlink" width="25" height="25" viewBox="0 0 25 25"><defs><clipPath id="a"><rect width="25" height="25" transform="translate(289 497)" fill="#787a7e"/></clipPath></defs><g transform="translate(-289 -497)" clip-path="url(#a)"><path d="M24.959,7.809C24.594,3.793,21.751.878,18.193.878A6.725,6.725,0,0,0,12.431,4.2,6.481,6.481,0,0,0,6.807.878C3.25.878.406,3.792.042,7.809a7.147,7.147,0,0,0,.213,2.634,11.3,11.3,0,0,0,3.461,5.776l8.71,7.9,8.859-7.9a11.3,11.3,0,0,0,3.461-5.776A7.162,7.162,0,0,0,24.959,7.809Z" transform="translate(289 497)" fill="#787a7e"/></g></svg>