<svg xmlns="http://www.w3.org/2000/svg" xmlns:xlink="http://www.w3.org/1999/xlink" width="25" height="25" viewBox="0 0 25 25"><defs><clipPath id="a"><rect width="25" height="25" transform="translate(337 497)" fill="#dcaa1c"/></clipPath></defs><g transform="translate(-337 -497)" clip-path="url(#a)"><g transform="translate(337 497)"><path d="M12.5,0A9.167,9.167,0,0,0,3.333,9.167c0,4.926,8.484,15.245,8.845,15.682a.417.417,0,0,0,.642,0c.361-.437,8.845-10.756,8.845-15.682A9.167,9.167,0,0,0,12.5,0Zm0,23.921C10.932,21.964,4.167,13.28,4.167,9.167a8.333,8.333,0,0,1,16.667,0C20.833,13.279,14.068,21.964,12.5,23.921Z" fill="#dcaa1c"/><path d="M18.171,7.587,12.754,3.42a.417.417,0,0,0-.508,0L6.829,7.587a.417.417,0,0,0,.254.747h1.25v4.583a.417.417,0,0,0,.417.417h7.5a.417.417,0,0,0,.417-.417V8.333h1.25a.417.417,0,0,0,.254-.747ZM13.333,12.5H11.667V10h1.667Zm2.917-5a.417.417,0,0,0-.417.417V12.5H14.167V9.583a.417.417,0,0,0-.417-.417h-2.5a.417.417,0,0,0-.417.417V12.5H9.167V7.917A.417.417,0,0,0,8.75,7.5H8.308L12.5,4.276,16.692,7.5Z" fill="#dcaa1c"/></g></g></svg>