<svg xmlns="http://www.w3.org/2000/svg" xmlns:xlink="http://www.w3.org/1999/xlink" width="25" height="25" viewBox="0 0 25 25"><defs><clipPath id="a"><rect width="25" height="25" transform="translate(693 355)" fill="#fff"/></clipPath></defs><g transform="translate(-693 -355)" clip-path="url(#a)"><g transform="translate(693 355)"><path d="M21.874,6.821a.2.2,0,0,0-.195-.18H18.164V5.664a5.664,5.664,0,0,0-11.328,0v.977H3.32a.2.2,0,0,0-.195.18L1.758,24.79a.2.2,0,0,0,.195.21H23.047a.2.2,0,0,0,.195-.21ZM8.4,5.664a4.1,4.1,0,0,1,8.2,0v.977H8.4Zm-.781,6.445a1.955,1.955,0,0,1-1.953-1.953,1.844,1.844,0,0,1,1.172-1.79v1.79a.781.781,0,0,0,1.563,0V8.367A1.849,1.849,0,0,1,9.57,10.156,1.955,1.955,0,0,1,7.617,12.109Zm9.766,0a1.955,1.955,0,0,1-1.953-1.953A1.844,1.844,0,0,1,16.6,8.366v1.79a.781.781,0,0,0,1.563,0V8.367a1.849,1.849,0,0,1,1.172,1.789A1.955,1.955,0,0,1,17.383,12.109Z"/></g></g></svg>