<svg xmlns="http://www.w3.org/2000/svg" xmlns:xlink="http://www.w3.org/1999/xlink" width="25" height="25" viewBox="0 0 25 25"><defs><clipPath id="a"><rect width="25" height="25" transform="translate(669 456)" fill="#fff"/></clipPath></defs><g transform="translate(-669 -456)" clip-path="url(#a)"><g transform="translate(669 457.514)"><path d="M8.055,14.649H21.338a.733.733,0,0,0,.7-.531l2.93-10.254a.732.732,0,0,0-.7-.934H6.366L5.842.574A.733.733,0,0,0,5.127,0H.732a.732.732,0,1,0,0,1.465H4.539l2.644,11.9a2.2,2.2,0,0,0,.873,4.213H21.338a.732.732,0,1,0,0-1.465H8.057a.732.732,0,0,1,0-1.465ZM23.3,4.395l-2.511,8.789H8.644L6.691,4.395Zm0,0" fill="#fff"/><path d="M7.324,19.775a2.2,2.2,0,1,0,2.2-2.2A2.2,2.2,0,0,0,7.324,19.775Zm2.2-.732a.732.732,0,1,1-.732.732A.733.733,0,0,1,9.521,19.043Zm0,0" fill="#fff"/><path d="M17.676,19.775a2.2,2.2,0,1,0,2.2-2.2A2.2,2.2,0,0,0,17.676,19.775Zm2.2-.732a.732.732,0,1,1-.732.732A.733.733,0,0,1,19.873,19.043Zm0,0" fill="#fff"/></g></g></svg>