<svg xmlns="http://www.w3.org/2000/svg" xmlns:xlink="http://www.w3.org/1999/xlink" width="30" height="30" viewBox="0 0 30 30"><defs><clipPath id="a"><rect width="30" height="30" transform="translate(638.463 454)"/></clipPath></defs><g transform="translate(-638.463 -454)" clip-path="url(#a)"><g transform="translate(638 455.062)"><path d="M30.413,12.073c-.445-4.859-3.909-8.385-8.244-8.385A8.206,8.206,0,0,0,15.148,7.7,7.907,7.907,0,0,0,8.3,3.687C3.96,3.687.5,7.213.051,12.072A8.585,8.585,0,0,0,.31,15.258a13.649,13.649,0,0,0,4.218,6.987l10.613,9.562,10.8-9.561a13.65,13.65,0,0,0,4.218-6.988A8.6,8.6,0,0,0,30.413,12.073Zm-1.4,2.919a12.483,12.483,0,0,1-3.861,6.389l-10,8.862L5.315,21.384a12.492,12.492,0,0,1-3.864-6.392,7.5,7.5,0,0,1-.244-2.734l.009-.059C1.6,7.941,4.574,4.851,8.3,4.851a6.866,6.866,0,0,1,6.31,4.371l.54,1.27.54-1.27A7.078,7.078,0,0,1,22.17,4.851c3.721,0,6.7,3.09,7.087,7.4A7.493,7.493,0,0,1,29.013,14.992Z" transform="translate(0 -3.687)"/></g></g></svg>