<svg xmlns="http://www.w3.org/2000/svg" xmlns:xlink="http://www.w3.org/1999/xlink" width="25" height="25" viewBox="0 0 25 25"><defs><clipPath id="a"><rect width="25" height="25" transform="translate(669 456)" fill="#fff"/></clipPath></defs><g transform="translate(-669 -456)" clip-path="url(#a)"><path d="M17.947.568A7.054,7.054,0,0,0,12.5,3.146,7.05,7.05,0,0,0,0,7.622c0,3.045,1.816,6.568,5.4,10.47A51.984,51.984,0,0,0,12,24.06l.5.372.5-.372A51.983,51.983,0,0,0,19.6,18.091c3.581-3.9,5.4-7.424,5.4-10.47A7.061,7.061,0,0,0,17.947.568Zm.441,16.408A50.129,50.129,0,0,1,12.5,22.363a50.136,50.136,0,0,1-5.888-5.386C3.365,13.439,1.648,10.2,1.648,7.622A5.4,5.4,0,0,1,11.779,5.006l.721,1.3.721-1.3A5.4,5.4,0,0,1,23.352,7.622C23.352,10.2,21.635,13.439,18.388,16.977Z" transform="translate(669 456)" fill="#fff"/></g></svg>