<svg xmlns="http://www.w3.org/2000/svg" xmlns:xlink="http://www.w3.org/1999/xlink" width="25" height="25" viewBox="0 0 25 25"><defs><clipPath id="a"><rect width="25" height="25" transform="translate(669 456)" fill="#fff"/></clipPath></defs><g transform="translate(-669 -456)" clip-path="url(#a)"><g transform="translate(669 456)"><path d="M24.959,7.809C24.594,3.793,21.751.878,18.193.878A6.725,6.725,0,0,0,12.431,4.2,6.481,6.481,0,0,0,6.807.878C3.25.878.406,3.792.042,7.809a7.147,7.147,0,0,0,.213,2.634,11.3,11.3,0,0,0,3.461,5.776l8.71,7.9,8.859-7.9a11.3,11.3,0,0,0,3.461-5.776A7.162,7.162,0,0,0,24.959,7.809ZM23.81,10.222A10.332,10.332,0,0,1,20.641,15.5l-8.21,7.325L4.362,15.506A10.339,10.339,0,0,1,1.19,10.222a6.244,6.244,0,0,1-.2-2.26L1,7.913C1.31,4.394,3.753,1.84,6.807,1.84a5.636,5.636,0,0,1,5.179,3.613l.443,1.05.443-1.05A5.809,5.809,0,0,1,18.193,1.84c3.054,0,5.5,2.554,5.816,6.119A6.237,6.237,0,0,1,23.81,10.222Z" fill="#fff"/></g></g></svg>