<svg xmlns="http://www.w3.org/2000/svg" xmlns:xlink="http://www.w3.org/1999/xlink" width="30" height="30" viewBox="0 0 30 30"><defs><clipPath id="a"><rect width="30" height="30" transform="translate(197 191)" fill="#fff"/></clipPath></defs><g transform="translate(-197 -191)" clip-path="url(#a)"><g transform="translate(197 191)"><path d="M19.471,7.981H10.529A2.591,2.591,0,0,0,7.941,10.57v8.941A2.592,2.592,0,0,0,10.529,22.1h8.941a2.592,2.592,0,0,0,2.589-2.589V10.57A2.591,2.591,0,0,0,19.471,7.981ZM15,19.688a4.648,4.648,0,1,1,4.648-4.648A4.653,4.653,0,0,1,15,19.688Zm4.8-8.334a1.1,1.1,0,1,1,1.1-1.1A1.1,1.1,0,0,1,19.8,11.354Z" fill="#787a7e"/><path d="M15,12.357a2.684,2.684,0,1,0,2.684,2.683A2.687,2.687,0,0,0,15,12.357Z" fill="#787a7e"/><path d="M15,0A15,15,0,1,0,30,15,15,15,0,0,0,15,0Zm9.023,19.511a4.557,4.557,0,0,1-4.552,4.552H10.529a4.557,4.557,0,0,1-4.552-4.552V10.57a4.557,4.557,0,0,1,4.552-4.552h8.941a4.557,4.557,0,0,1,4.552,4.552Z" fill="#787a7e"/></g></g></svg>