<svg xmlns="http://www.w3.org/2000/svg" xmlns:xlink="http://www.w3.org/1999/xlink" width="25" height="25" viewBox="0 0 25 25"><defs><clipPath id="a"><rect width="25" height="25" transform="translate(289 460)" fill="#fff"/></clipPath></defs><g transform="translate(-289 -460)" clip-path="url(#a)"><g transform="translate(289 460.001)"><path d="M24.874,9.49a2.465,2.465,0,0,1-.093.468,17.731,17.731,0,0,1-1.531,2.392c-.64,1.023-6.082-1.182-5.381-2.548A14,14,0,0,0,19.241,7.34c.071-.5-.592-.892-1.2-.943-1.615-.13-3.679-.012-5.394,0h-.285c-1.715-.011-3.778-.129-5.394,0-.612.051-1.275.443-1.2.944A13.949,13.949,0,0,0,7.132,9.8c.7,1.366-4.741,3.571-5.381,2.548A17.61,17.61,0,0,1,.22,9.959a2.478,2.478,0,0,1-.094-.468C-.672,5.923,2.4,2.283,7.038,1.911c1.77-.144,3.544-.225,5.32-.256v-.01l.143.005.143-.005v.009c1.775.032,3.549.112,5.319.256C22.6,2.283,25.673,5.924,24.874,9.49ZM21.692,21.8a1.363,1.363,0,0,1-1.247,1.554H4.554A1.364,1.364,0,0,1,3.308,21.8L3.772,14c1.684-.394,3.836-1.425,4.617-2.7a2.216,2.216,0,0,0,.124-2.211c-.09-.174-.26-.445-.454-.748h0l-.01-.023H16.7c0,.012-.006.014-.013.032a1.241,1.241,0,0,0-.125.613c-.025.044-.059.1-.078.136a2.21,2.21,0,0,0,.128,2.2c.781,1.281,2.932,2.309,4.616,2.7ZM15.54,13.7a4.271,4.271,0,1,0-.5,6.463l-1.044-1.043a2.828,2.828,0,1,1,.935-.944l1.046,1.046A4.272,4.272,0,0,0,15.54,13.7Z" fill="#787a7e"/></g></g></svg>