<svg xmlns="http://www.w3.org/2000/svg" xmlns:xlink="http://www.w3.org/1999/xlink" width="30" height="30" viewBox="0 0 30 30"><defs><clipPath id="a"><rect width="30" height="30" transform="translate(197 236)" fill="#fff"/></clipPath></defs><g transform="translate(-197 -236)" clip-path="url(#a)"><g transform="translate(197 235.999)"><circle cx="15" cy="15" r="15" transform="translate(0 0.001)" fill="#787a7e"/><path d="M16.211,20.087a5.072,5.072,0,0,1-2.5-1.19c-.489,2.565-1.086,5.023-2.855,6.307-.547-3.876.8-6.787,1.428-9.878-1.067-1.8.128-5.414,2.38-4.522,2.771,1.1-2.4,6.681,1.072,7.379,3.623.728,5.1-6.287,2.855-8.569C15.344,6.319,9.14,9.539,9.9,14.255c.186,1.153,1.377,1.5.476,3.094-2.078-.46-2.7-2.1-2.618-4.284a6.992,6.992,0,0,1,6.308-6.427c3.913-.438,7.586,1.437,8.093,5.118.57,4.154-1.767,8.654-5.951,8.331Z" fill="#fff"/></g></g></svg>